 http://www.imdb.com/title/tt0970452/

Source: Solomon Kane 2009 720p BluRay x264-AVS720 Thanks!

Subs: Arabic, Brazilian, Bulgarian, Danish, Dutch, English, Estonian, Farsi-Persian, French, Hebrew, Hungarian, Indonesian, Macedonian, Norwegian, Polish, Romanian, Slovenian, Spanish, Swedish and Vietnamese.

Sample and Screens included.

General
Complete name                            : Solomon Kane-720p MP4 AAC x264 BRRip 2009-CC.mp4
Format                                   : MPEG-4
Format profile                           : Base Media
Codec ID                                 : isom
File size                                : 2.86 GiB
Duration                                 : 1h 46mn
Overall bit rate mode                    : Variable
Overall bit rate                         : 3 834 Kbps
Encoded date                             : UTC 2012-11-28 08:17:42

Video
ID                                       : 1
Format                                   : AVC
Format/Info                              : Advanced Video Codec
Format profile                           : High@L4.1
Format settings, CABAC                   : Yes
Format settings, ReFrames                : 5 frames
Codec ID                                 : avc1
Codec ID/Info                            : Advanced Video Coding
Duration                                 : 1h 43mn
Bit rate                                 : 3 590 Kbps
Maximum bit rate                         : 15.0 Mbps
Width                                    : 1 280 pixels
Height                                   : 544 pixels
Display aspect ratio                     : 2.35:1
Frame rate mode                          : Variable
Frame rate                               : 24.000 fps
Minimum frame rate                       : 19.133 fps
Maximum frame rate                       : 24.390 fps
Color space                              : YUV
Chroma subsampling                       : 4:2:0
Bit depth                                : 8 bits
Scan type                                : Progressive
Bits/(Pixel*Frame)                       : 0.215
Stream size                              : 2.58 GiB (90%)
Writing library                          : x264 core 112

Audio
ID                                       : 2
Format                                   : AAC
Format/Info                              : Advanced Audio Codec
Format profile                           : LC
Codec ID                                 : 40
Duration                                 : 1h 46mn
Bit rate mode                            : Variable
Bit rate                                 : 384 Kbps
Maximum bit rate                         : 600 Kbps
Channel(s)                               : 6 channels
Channel positions                        : Front: L C R, Side: L R, LFE
Sampling rate                            : 48.0 KHz
Compression mode                         : Lossy
Delay relative to video                  : 83ms
Stream size                              : 288 MiB (10%)
Language                                 : English

Enjoy...

Requested by Tommy.

Coming soon: Jay and Silent Bob Strike Back, Donnie Brasco, The Gold Rush and more...